<svg width="512" height="512" viewBox="0 0 512 512" fill="none" xmlns="http://www.w3.org/2000/svg">
<rect width="512" height="512" fill="#101010"/>
<path d="M272.664 102.808C272.664 100.437 275.283 98.9914 277.28 100.268L342.958 142.268C343.82 142.819 344.342 143.772 344.342 144.795V242.258C344.342 244.591 341.796 246.031 339.796 244.829L274.119 205.352C273.216 204.81 272.664 203.821 272.664 202.768C272.664 163.826 272.664 140.743 272.664 102.808Z" fill="#FF6900"/>
<path d="M167.01 274.027C167.027 271.638 169.692 270.226 171.677 271.554L233.547 312.92C234.27 313.404 234.748 314.178 234.856 315.041L235.666 321.505V324.864V331.58V342.775V367.403L235.922 408.616C235.937 411.043 233.215 412.482 231.218 411.104L167.674 367.251C166.857 366.686 166.371 365.754 166.378 364.761L167.01 274.027Z" fill="#FF6900"/>
<path d="M167.156 145.441C167.156 144.453 167.642 143.529 168.455 142.97L230.923 99.9613C232.914 98.591 235.625 100.016 235.625 102.432V202.812C235.625 203.847 236.158 204.808 237.035 205.356L343.09 271.627C343.968 272.175 344.501 273.136 344.501 274.171V367.425C344.501 368.432 343.996 369.371 343.157 369.927L280.688 411.287C278.694 412.608 276.032 411.177 276.032 408.786V314.966C276.032 313.958 275.526 313.017 274.684 312.462L168.504 242.405C167.663 241.849 167.156 240.909 167.156 239.901V145.441Z" fill="#FF6900"/>
</svg>
