<svg width="1630" height="397" viewBox="0 0 1630 397" fill="none" xmlns="http://www.w3.org/2000/svg">
<rect width="1630" height="397" fill="white"/>
<path d="M212.422 80.9432C212.422 78.573 215.041 77.134 217.038 78.411L266.616 110.115C267.478 110.666 268 111.619 268 112.643V186.654C268 188.987 265.454 190.427 263.454 189.225L213.876 159.425C212.974 158.883 212.422 157.897 212.422 156.844C212.422 127.299 212.422 109.511 212.422 80.9432Z" fill="#FF6900"/>
<path d="M130.49 213.728C130.506 211.34 133.172 209.927 135.157 211.255L181.835 242.464C182.558 242.947 183.036 243.721 183.144 244.585L183.734 249.292V251.896V257.104V265.784V284.88L183.924 315.543C183.939 317.97 181.217 319.409 179.22 318.031L131.307 284.965C130.489 284.401 130.004 283.468 130.011 282.475L130.49 213.728Z" fill="#FF6900"/>
<path d="M130.611 113.128C130.611 112.141 131.097 111.217 131.91 110.657L179 78.2367C180.99 76.8664 183.701 78.2913 183.701 80.7077V156.886C183.701 157.92 184.234 158.882 185.111 159.43L266.712 210.42C267.589 210.968 268.122 211.929 268.122 212.964V284.537C268.122 285.543 267.618 286.483 266.779 287.038L219.689 318.216C217.695 319.537 215.033 318.107 215.033 315.715V244.585C215.033 243.577 214.526 242.636 213.685 242.081L131.959 188.159C131.118 187.604 130.611 186.663 130.611 185.655V113.128Z" fill="#FF6900"/>
<path d="M498.1 278C487.9 278 478.7 276.267 470.5 272.8C462.367 269.333 455.633 264.4 450.3 258C445.033 251.533 441.6 243.9 440 235.1L458.4 232.2C460.733 241.267 465.567 248.367 472.9 253.5C480.3 258.567 489 261.1 499 261.1C505.467 261.1 511.3 260.1 516.5 258.1C521.767 256.033 525.933 253.1 529 249.3C532.067 245.5 533.6 241 533.6 235.8C533.6 232.6 533.033 229.867 531.9 227.6C530.833 225.267 529.333 223.3 527.4 221.7C525.533 220.033 523.4 218.633 521 217.5C518.6 216.367 516.1 215.433 513.5 214.7L476.8 203.8C472.8 202.6 468.933 201.1 465.2 199.3C461.467 197.433 458.133 195.133 455.2 192.4C452.267 189.6 449.933 186.267 448.2 182.4C446.467 178.467 445.6 173.833 445.6 168.5C445.6 159.967 447.8 152.7 452.2 146.7C456.667 140.633 462.7 136 470.3 132.8C477.9 129.6 486.467 128.033 496 128.1C505.667 128.167 514.3 129.9 521.9 133.3C529.567 136.633 535.9 141.433 540.9 147.7C545.967 153.967 549.367 161.467 551.1 170.2L532.2 173.5C531.2 167.633 528.967 162.6 525.5 158.4C522.1 154.133 517.833 150.867 512.7 148.6C507.567 146.267 501.933 145.067 495.8 145C489.933 144.933 484.633 145.867 479.9 147.8C475.167 149.733 471.4 152.433 468.6 155.9C465.8 159.3 464.4 163.233 464.4 167.7C464.4 172.1 465.667 175.667 468.2 178.4C470.733 181.067 473.833 183.2 477.5 184.8C481.233 186.333 484.867 187.6 488.4 188.6L515.8 196.5C518.933 197.367 522.533 198.567 526.6 200.1C530.733 201.633 534.733 203.8 538.6 206.6C542.467 209.333 545.667 213 548.2 217.6C550.733 222.133 552 227.867 552 234.8C552 241.733 550.6 247.9 547.8 253.3C545.067 258.7 541.233 263.233 536.3 266.9C531.367 270.5 525.633 273.233 519.1 275.1C512.567 277.033 505.567 278 498.1 278ZM624.477 278C613.543 278 604.243 275.567 596.577 270.7C588.977 265.767 583.177 259 579.177 250.4C575.177 241.8 573.11 232 572.977 221C573.11 209.733 575.21 199.833 579.277 191.3C583.41 182.7 589.31 176 596.977 171.2C604.643 166.4 613.877 164 624.677 164C636.077 164 645.877 166.8 654.077 172.4C662.343 178 667.877 185.667 670.677 195.4L653.077 200.7C650.81 194.433 647.11 189.567 641.977 186.1C636.91 182.633 631.077 180.9 624.477 180.9C617.077 180.9 610.977 182.633 606.177 186.1C601.377 189.5 597.81 194.233 595.477 200.3C593.143 206.3 591.943 213.2 591.877 221C592.01 233 594.777 242.7 600.177 250.1C605.643 257.433 613.743 261.1 624.477 261.1C631.543 261.1 637.41 259.5 642.077 256.3C646.743 253.033 650.277 248.333 652.677 242.2L670.677 246.9C666.943 256.967 661.11 264.667 653.177 270C645.243 275.333 635.677 278 624.477 278ZM726.809 278C718.743 278 711.976 276.533 706.509 273.6C701.109 270.6 697.009 266.667 694.209 261.8C691.476 256.933 690.109 251.6 690.109 245.8C690.109 240.133 691.176 235.233 693.309 231.1C695.509 226.9 698.576 223.433 702.509 220.7C706.443 217.9 711.143 215.7 716.609 214.1C721.743 212.7 727.476 211.5 733.809 210.5C740.209 209.433 746.676 208.467 753.209 207.6C759.743 206.733 765.843 205.9 771.509 205.1L765.109 208.8C765.309 199.2 763.376 192.1 759.309 187.5C755.309 182.9 748.376 180.6 738.509 180.6C731.976 180.6 726.243 182.1 721.309 185.1C716.443 188.033 713.009 192.833 711.009 199.5L694.109 194.4C696.709 184.933 701.743 177.5 709.209 172.1C716.676 166.7 726.509 164 738.709 164C748.509 164 756.909 165.767 763.909 169.3C770.976 172.767 776.043 178.033 779.109 185.1C780.643 188.433 781.609 192.067 782.009 196C782.409 199.867 782.609 203.933 782.609 208.2V275H766.809V249.1L770.509 251.5C766.443 260.233 760.743 266.833 753.409 271.3C746.143 275.767 737.276 278 726.809 278ZM729.509 263.1C735.909 263.1 741.443 261.967 746.109 259.7C750.843 257.367 754.643 254.333 757.509 250.6C760.376 246.8 762.243 242.667 763.109 238.2C764.109 234.867 764.643 231.167 764.709 227.1C764.843 222.967 764.909 219.8 764.909 217.6L771.109 220.3C765.309 221.1 759.609 221.867 754.009 222.6C748.409 223.333 743.109 224.133 738.109 225C733.109 225.8 728.609 226.767 724.609 227.9C721.676 228.833 718.909 230.033 716.309 231.5C713.776 232.967 711.709 234.867 710.109 237.2C708.576 239.467 707.809 242.3 707.809 245.7C707.809 248.633 708.543 251.433 710.009 254.1C711.543 256.767 713.876 258.933 717.009 260.6C720.209 262.267 724.376 263.1 729.509 263.1ZM816.609 275V128H834.409V275H816.609ZM917.214 278C906.614 278 897.347 275.667 889.414 271C881.547 266.267 875.414 259.7 871.014 251.3C866.614 242.833 864.414 232.967 864.414 221.7C864.414 209.9 866.581 199.7 870.914 191.1C875.247 182.433 881.281 175.767 889.014 171.1C896.814 166.367 905.947 164 916.414 164C927.281 164 936.514 166.5 944.114 171.5C951.781 176.5 957.514 183.633 961.314 192.9C965.181 202.167 966.847 213.2 966.314 226H948.314V219.6C948.114 206.333 945.414 196.433 940.214 189.9C935.014 183.3 927.281 180 917.014 180C906.014 180 897.647 183.533 891.914 190.6C886.181 197.667 883.314 207.8 883.314 221C883.314 233.733 886.181 243.6 891.914 250.6C897.647 257.6 905.814 261.1 916.414 261.1C923.547 261.1 929.747 259.467 935.014 256.2C940.281 252.933 944.414 248.233 947.414 242.1L964.514 248C960.314 257.533 953.981 264.933 945.514 270.2C937.114 275.4 927.681 278 917.214 278ZM877.314 226V211.7H957.114V226H877.314ZM1004.88 275V161.1C1004.88 158.3 1005.01 155.467 1005.28 152.6C1005.54 149.667 1006.14 146.833 1007.08 144.1C1008.01 141.3 1009.54 138.733 1011.68 136.4C1014.14 133.667 1016.84 131.733 1019.78 130.6C1022.71 129.4 1025.68 128.667 1028.68 128.4C1031.74 128.133 1034.64 128 1037.38 128H1051.08V142.8H1038.38C1033.11 142.8 1029.18 144.1 1026.58 146.7C1023.98 149.233 1022.68 153.1 1022.68 158.3V275H1004.88ZM986.578 181.7V167H1051.08V181.7H986.578ZM1072.08 147.9V129.5H1089.88V147.9H1072.08ZM1072.08 275V167H1089.88V275H1072.08ZM1172.77 278C1162.17 278 1152.9 275.667 1144.97 271C1137.1 266.267 1130.97 259.7 1126.57 251.3C1122.17 242.833 1119.97 232.967 1119.97 221.7C1119.97 209.9 1122.14 199.7 1126.47 191.1C1130.8 182.433 1136.84 175.767 1144.57 171.1C1152.37 166.367 1161.5 164 1171.97 164C1182.84 164 1192.07 166.5 1199.67 171.5C1207.34 176.5 1213.07 183.633 1216.87 192.9C1220.74 202.167 1222.4 213.2 1221.87 226H1203.87V219.6C1203.67 206.333 1200.97 196.433 1195.77 189.9C1190.57 183.3 1182.84 180 1172.57 180C1161.57 180 1153.2 183.533 1147.47 190.6C1141.74 197.667 1138.87 207.8 1138.87 221C1138.87 233.733 1141.74 243.6 1147.47 250.6C1153.2 257.6 1161.37 261.1 1171.97 261.1C1179.1 261.1 1185.3 259.467 1190.57 256.2C1195.84 252.933 1199.97 248.233 1202.97 242.1L1220.07 248C1215.87 257.533 1209.54 264.933 1201.07 270.2C1192.67 275.4 1183.24 278 1172.77 278ZM1132.87 226V211.7H1212.67V226H1132.87ZM1252.13 275V128H1269.93V275H1252.13ZM1348.34 278C1338.27 278 1329.64 275.5 1322.44 270.5C1315.24 265.433 1309.67 258.6 1305.74 250C1301.87 241.4 1299.94 231.7 1299.94 220.9C1299.94 210.1 1301.87 200.4 1305.74 191.8C1309.67 183.2 1315.24 176.433 1322.44 171.5C1329.64 166.5 1338.24 164 1348.24 164C1358.44 164 1367 166.467 1373.94 171.4C1380.87 176.333 1386.1 183.1 1389.64 191.7C1393.24 200.3 1395.04 210.033 1395.04 220.9C1395.04 231.633 1393.24 241.333 1389.64 250C1386.1 258.6 1380.87 265.433 1373.94 270.5C1367 275.5 1358.47 278 1348.34 278ZM1350.54 261.7C1357.8 261.7 1363.77 259.967 1368.44 256.5C1373.1 252.967 1376.54 248.133 1378.74 242C1381 235.8 1382.14 228.767 1382.14 220.9C1382.14 212.9 1381 205.867 1378.74 199.8C1376.54 193.667 1373.14 188.9 1368.54 185.5C1363.94 182.033 1358.1 180.3 1351.04 180.3C1343.7 180.3 1337.64 182.1 1332.84 185.7C1328.1 189.3 1324.57 194.167 1322.24 200.3C1319.97 206.433 1318.84 213.3 1318.84 220.9C1318.84 228.567 1320 235.5 1322.34 241.7C1324.67 247.833 1328.17 252.7 1332.84 256.3C1337.57 259.9 1343.47 261.7 1350.54 261.7ZM1382.14 275V195.5H1380.14V131H1398.04V275H1382.14Z" fill="#FF6900"/>
</svg>
